<svg id="ILLUSTRATION" xmlns="http://www.w3.org/2000/svg" xmlns:xlink="http://www.w3.org/1999/xlink" viewBox="0 0 360 264"><defs><style>.cls-1,.cls-11,.cls-3{fill:none;}.cls-2,.cls-4{fill:#293a54;}.cls-3,.cls-4{stroke:#4285f4;}.cls-11,.cls-3,.cls-4{stroke-linecap:round;stroke-linejoin:round;stroke-width:3px;}.cls-5{fill:#4285f4;}.cls-6{fill:#f882ff;}.cls-7{fill:#34a853;}.cls-8{fill:#d2e3fc;}.cls-9{clip-path:url(#clip-path);}.cls-10{fill:#fbbc05;}.cls-11{stroke:#fff;}.cls-12{clip-path:url(#clip-path-2);}.cls-13{fill:#ea4335;}</style><clipPath id="clip-path"><rect class="cls-1" x="121.88" y="88.23" width="35.24" height="34.96" rx="5.53" transform="translate(-27.4 52.98) rotate(-19.62)"/></clipPath><clipPath id="clip-path-2"><path class="cls-1" d="M194.06,106.57h0A10.81,10.81,0,0,1,207.32,99h0l24.42,6.59a10.81,10.81,0,0,1,7.6,13.27h0a10.81,10.81,0,0,1-13.25,7.6h0l-24.42-6.6A10.82,10.82,0,0,1,194.06,106.57Z"/></clipPath></defs><title>Artboard 1</title><path class="cls-2" d="M317.39,116.83a3,3,0,0,1,2.37.86,3.26,3.26,0,0,1,.67,1.46A7.86,7.86,0,0,1,320,124a13.8,13.8,0,0,1-1.95,3,80.62,80.62,0,0,1-8.32,9.11c.55-.07,1.91-11.11,2.1-12.25.27-1.57.24-3.59,1.18-4.91A5.67,5.67,0,0,1,317.39,116.83Z"/><path class="cls-3" d="M312.05,120.2a5.35,5.35,0,0,1,2.21-2.58,3.9,3.9,0,0,1,6.48,2.72c.48,3.42-2.06,6.44-4.42,9l-6.88,7.34"/><polyline class="cls-2" points="191.97 104.53 185.09 89.28 176.87 90.99 170.9 89.59 169.06 90.22 163.87 103.59"/><circle class="cls-4" cx="177.52" cy="73.29" r="17.7"/><line class="cls-3" x1="163.87" y1="103.6" x2="169.06" y2="90.23"/><line class="cls-3" x1="191.19" y1="103.6" x2="185.67" y2="90.41"/><path class="cls-3" d="M94.81,148.57c8-14.23,12.09-24.86,26.27-34,12.62-8.15,28-11,42.79-11H192"/><line class="cls-3" x1="138.78" y1="202.59" x2="216.7" y2="202.59"/><path class="cls-3" d="M134.89,148.35c3.46,16.82.83,28.75.33,43.27-.14,4,.28,8.64,3.55,11"/><path class="cls-3" d="M138.36,203.12a52.9,52.9,0,0,0-7.85,24.57v-1"/><path class="cls-3" d="M218.28,203.12c3.58,9.73,6.31,16.34,7.85,24.57"/><path class="cls-3" d="M191.19,103.6c14.6,0,29.88,2.4,42.42,10.33,14.33,9.07,18.1,24.56,22.58,41.64"/><path class="cls-3" d="M221.09,143.74c1.8,12.55-.13,23.09,0,34.78.06,4.09.68,8.16.55,12.25s-1.09,8.33-3.76,11.42"/><path class="cls-5" d="M195.2,74.15s7.61,9.15,10.7,7.25c2.83-1.74.45-6.61-7.82-11.46,0,0,10.14,1,9.68-2.89s-10.63-2.15-10.63-2.15,10.81-3.22,8.3-7.37c-2.33-3.83-11.84,2.76-11.84,2.76s8.62-8.38,4.52-11.37S189.28,56,189.28,56s7.77-17.68,0-20.91C183.47,32.68,182,52.83,182,52.83s-1.17-19.39-7.1-17.25c-5.34,1.94,1.42,16.56,1.42,16.56s-10.19-17.08-13.05-12.2c-2.32,4,5.45,13.2,5.45,13.2s-15.19-10.08-17.31-4.31c-.76,2.06,2.19,6.51,12.35,7.84,0,0-13.39.61-13.05,4.76.51,6.06,15.15,1.34,15.15,1.34C173.41,70.42,184.44,74.43,195.2,74.15Z"/><path class="cls-2" d="M42,118.42a3.07,3.07,0,0,0-2.2,1.24,3.22,3.22,0,0,0-.43,1.55A7.85,7.85,0,0,0,40.55,126,14,14,0,0,0,43,128.64a79.41,79.41,0,0,0,9.7,7.63c-.57,0-3.7-10.65-4.08-11.75-.52-1.5-.81-3.5-2-4.64A5.64,5.64,0,0,0,42,118.42Z"/><path class="cls-3" d="M47.78,120.92a5.33,5.33,0,0,0-2.6-2.18,3.89,3.89,0,0,0-6,3.74c.09,3.45,3.08,6,5.82,8.12l8,6.11"/><path class="cls-4" d="M168.89,79.52s5,3.61,8.62-1"/><path class="cls-3" d="M102.35,149.75c-13.7,1.37-29.35,5.19-43,6.79"/><path class="cls-6" d="M250,139.44a1.83,1.83,0,0,1-2.26-1.25c0-.07,0-.13,0-.2a18.28,18.28,0,0,1,34.95-10,1.83,1.83,0,0,1-1,2.38l-.18.07Z"/><path class="cls-7" d="M198.89,104.64,186,97.77a2.68,2.68,0,0,0-3.95,2.47l.52,14.64a2.68,2.68,0,0,0,2.76,2.59,2.81,2.81,0,0,0,1.35-.41l12.42-7.77a2.69,2.69,0,0,0-.16-4.65Z"/><path class="cls-8" d="M90.37,128.83A13.23,13.23,0,0,0,92,126.4l1.75-2.61a10.78,10.78,0,0,1,6.23-4.35c3.52-1,7.26-1,9.65-4.21a8.93,8.93,0,0,0,1.08-8.79c-.06-.15-.13-.29-.2-.44a8.9,8.9,0,0,0-12-3.9,8,8,0,0,0-1.18.73,40.77,40.77,0,0,0-3.57,3,10.59,10.59,0,0,1-7.61,2.57L83,108.19a11.9,11.9,0,0,0-2.92-.2,12.64,12.64,0,0,0,1.41,25.24,12.87,12.87,0,0,0,4.8-1.24A12.58,12.58,0,0,0,90.37,128.83Z"/><g class="cls-9"><rect class="cls-10" x="121.88" y="88.23" width="35.24" height="34.96" rx="5.53" transform="translate(-27.4 52.98) rotate(-19.62)"/><circle class="cls-11" cx="144.13" cy="96.33" r="3.09"/><path class="cls-11" d="M123.57,128.93l10.52-24.25a.49.49,0,0,1,.65-.25l.06,0,24.48,16.24"/></g><path class="cls-2" d="M46,111.9v-4.49a33.51,33.51,0,0,1,.53-6.71,11.12,11.12,0,0,1,3.1-5.88c1.79-1.65,4.76-2.37,6.64-.83.55-1.84,1.08-4.06,2.57-5.28s4.11-1.22,5,.48a5.35,5.35,0,0,1,7.55.52,5.56,5.56,0,0,1,1,1.66c1.13-1.62,3.78-1.43,5.24-.1s2,3.39,2.38,5.33c1.5,8.1,1,16.78,4.73,24.14a37.47,37.47,0,0,0,7,9.09c2.06,2.11,4.5,4,6.23,6.42,2.8,3.89,3.89,8.72,4.91,13.41-13,.9-23.61,4.32-36.54,5.91C57.52,143.21,45.89,127.1,46,111.9Z"/><path class="cls-3" d="M55.3,93.38c-6.43-2.91-8.82,7.49-9,11.7-.54,12.51,3.16,25,9.37,35.84a89.26,89.26,0,0,0,10.7,14.65"/><path class="cls-3" d="M63.42,89.71a3.21,3.21,0,0,0-4.37-.51,6.74,6.74,0,0,0-2.39,3.55c-3.08,8.65-.41,18.16,2.26,26.94"/><path class="cls-3" d="M71.89,91.05a4,4,0,0,0-4.79-3A4,4,0,0,0,65,89.24c-2,1.92-2.07,5.12-2.3,7.68a41.17,41.17,0,0,0,.86,12.47,52,52,0,0,0,3.06,9.47"/><path class="cls-3" d="M59.32,156.54c0,8.55,1.76,17,3.63,25.32,1.81,8,3.63,16.11,6.8,23.73,4.89,11.79,14.15,23.63,28.11,23.52,9.74-.08,17.48-2.37,21.48-11.74,5.42-12.66-11.28-55-16.11-69.61-1.28-3.88-2.38-7.94-4.85-11.19-3.22-4.21-7.47-7.46-10.79-11.57a24.05,24.05,0,0,1-2-2.93c-3.49-4.67-4.4-16.34-4.4-16.34-.43-4-.77-8.07-2-11.81-.49-1.46-1.47-3.15-3.1-3.48a4.17,4.17,0,0,0-3.91,1.86C70.74,94.18,70.86,97,71,99.2a56.94,56.94,0,0,0,3.74,18.9c.12.35.26.7.39,1"/><path class="cls-2" d="M267.25,148.33c-1.69-4.2.62-9.7,1.6-15.19,1-5.82,5.43-10.69,6.14-16.55.8-6.59-1.56-13.53.65-19.8a5.63,5.63,0,0,1,2.47-3.32c1.26-.64,3.11-.25,3.61,1.07,1.42-3.22,6.86-3.39,8.48-.26,2-3,7.55-2,8.4,1.46,1.15-2.44,4.83-2.64,7-1s3.13,4.34,3.86,6.93c1.15,4.13,2,8.35,2.74,12.57s1.44,8.76,1,13.15c-.52,4.79-2.39,9.32-4.24,13.77l-5.6,13.45"/><path class="cls-3" d="M267.49,144.7a24.15,24.15,0,0,1,2.67-13.61c1.23-2.42,2.78-4.67,3.84-7.16,2-4.67,2.15-9.82,1.91-14.82-.12-2.53-.35-5-.5-7.58-.11-2-.67-5,.68-6.69,2.12-2.71,5.74-1.24,6.88.71,2.35,4,2.18,10.87,2.17,15.39a73.34,73.34,0,0,1-.59,8.75"/><path class="cls-3" d="M282.56,94.4a4.85,4.85,0,0,1,2.37-2.25,5,5,0,0,1,5.17.83,8.86,8.86,0,0,1,2.18,3.79,53.72,53.72,0,0,1,3.35,22.91"/><path class="cls-3" d="M292.28,96.77c-.63-1.94,1.6-3.87,3.19-4a5,5,0,0,1,4.12,2,12.49,12.49,0,0,1,2,4.29,61.44,61.44,0,0,1,2.6,20.62"/><path class="cls-3" d="M300.73,96.66c-.45-2.14,3.2-3.46,5.19-2.55s3,3.13,3.73,5.21a59.63,59.63,0,0,1,.8,36.33c-1,3.28-2.23,6.46-3.49,9.64l-3.25,8.22"/><path class="cls-3" d="M304.77,153.14c-2.7,14.93-4.64,30.35-10,44.63-3.2,8.45-7,17.41-13.6,23.79-8,7.64-21.62,10.23-31.21,4.26-14.58-9.07-11.59-28.93-6-42.43,4.2-10.09,13.41-26.9,17-37.29Z"/><path class="cls-8" d="M194.06,106.57h0A10.81,10.81,0,0,1,207.32,99h0l24.42,6.59a10.81,10.81,0,0,1,7.6,13.27h0a10.81,10.81,0,0,1-13.25,7.6h0l-24.42-6.6A10.82,10.82,0,0,1,194.06,106.57Z"/><g class="cls-12"><path class="cls-13" d="M185.05,100.68l12,6.36-11.5,7.2-.48-13.56m-.33-3.23a2.69,2.69,0,0,0-2.69,2.7v.09l.52,14.64a2.71,2.71,0,0,0,2.69,2.6,2.65,2.65,0,0,0,1.42-.42l12.42-7.77a2.69,2.69,0,0,0-.16-4.65L186,97.77A2.65,2.65,0,0,0,184.74,97.45Z"/></g><path class="cls-3" d="M102.35,149.75c-13.7,1.37-29.35,5.19-43,6.79"/></svg>
